<svg viewBox="0 0 512 512" width="512" height="512" xmlns="http://www.w3.org/2000/svg">
  <!-- Background azul com bordas arredondadas -->
  <rect width="512" height="512" rx="96" fill="#1565C0"/>

  <!-- Livro - capa esquerda -->
  <rect x="108" y="148" width="130" height="192" rx="8" fill="#0D47A1"/>
  <rect x="108" y="148" width="130" height="192" rx="8" fill="none" stroke="#42A5F5" stroke-width="3"/>

  <!-- Livro - capa direita -->
  <rect x="274" y="148" width="130" height="192" rx="8" fill="#0D47A1"/>
  <rect x="274" y="148" width="130" height="192" rx="8" fill="none" stroke="#42A5F5" stroke-width="3"/>

  <!-- Lombada -->
  <rect x="234" y="140" width="44" height="208" rx="6" fill="#1976D2"/>
  <rect x="234" y="140" width="44" height="208" rx="6" fill="none" stroke="#42A5F5" stroke-width="2"/>

  <!-- Linhas livro esquerdo -->
  <line x1="128" y1="200" x2="218" y2="200" stroke="#42A5F5" stroke-width="3" stroke-linecap="round" opacity="0.7"/>
  <line x1="128" y1="222" x2="218" y2="222" stroke="#42A5F5" stroke-width="3" stroke-linecap="round" opacity="0.5"/>
  <line x1="128" y1="244" x2="218" y2="244" stroke="#42A5F5" stroke-width="3" stroke-linecap="round" opacity="0.5"/>
  <line x1="128" y1="266" x2="218" y2="266" stroke="#42A5F5" stroke-width="3" stroke-linecap="round" opacity="0.35"/>

  <!-- Linhas livro direito -->
  <line x1="294" y1="200" x2="384" y2="200" stroke="#42A5F5" stroke-width="3" stroke-linecap="round" opacity="0.7"/>
  <line x1="294" y1="222" x2="384" y2="222" stroke="#42A5F5" stroke-width="3" stroke-linecap="round" opacity="0.5"/>
  <line x1="294" y1="244" x2="384" y2="244" stroke="#42A5F5" stroke-width="3" stroke-linecap="round" opacity="0.5"/>
  <line x1="294" y1="266" x2="384" y2="266" stroke="#42A5F5" stroke-width="3" stroke-linecap="round" opacity="0.35"/>

  <!-- Círculo verde com seta de upload -->
  <circle cx="370" cy="358" r="66" fill="#4CAF50"/>
  <path d="M370 318 L370 378" stroke="white" stroke-width="10" stroke-linecap="round"/>
  <path d="M345 343 L370 318 L395 343" fill="none" stroke="white" stroke-width="10" stroke-linecap="round" stroke-linejoin="round"/>
  <line x1="348" y1="394" x2="392" y2="394" stroke="white" stroke-width="10" stroke-linecap="round"/>
</svg>
